<svg width="24" height="25" viewBox="0 0 24 25" fill="none" xmlns="http://www.w3.org/2000/svg">
<path fill-rule="evenodd" clip-rule="evenodd" d="M21.045 5.06066C21.2402 4.8654 21.2402 4.54882 21.045 4.35355L20.3379 3.64645C20.1426 3.45118 19.826 3.45118 19.6308 3.64645L12.3379 10.9393C12.1426 11.1346 11.826 11.1346 11.6308 10.9393L4.3673 3.67588C4.17204 3.48062 3.85546 3.48062 3.66019 3.67588L2.95309 4.38299C2.75783 4.57825 2.75783 4.89483 2.95309 5.0901L10.2165 12.3536C10.4118 12.5488 10.4118 12.8654 10.2165 13.0607L3.3673 19.9099C3.17204 20.1052 3.17204 20.4217 3.3673 20.617L4.07441 21.3241C4.26967 21.5194 4.58625 21.5194 4.78151 21.3241L11.6308 14.4749C11.826 14.2796 12.1426 14.2796 12.3379 14.4749L19.2165 21.3536C19.4118 21.5488 19.7284 21.5488 19.9236 21.3536L20.6308 20.6464C20.826 20.4512 20.826 20.1346 20.6308 19.9393L13.7521 13.0607C13.5568 12.8654 13.5568 12.5488 13.7521 12.3536L21.045 5.06066Z" fill="#334155"/>
</svg>
