<svg width="current" height="current" viewBox="0 0 16 16" fill="none" xmlns="http://www.w3.org/2000/svg">
<rect width="16" height="16" fill="#152035"/>
<path fill-rule="evenodd" clip-rule="evenodd" d="M8.75 2.5C8.75 2.22386 8.52614 2 8.25 2H7.75C7.47386 2 7.25 2.22386 7.25 2.5V6.75C7.25 7.02614 7.02614 7.25 6.75 7.25H2.5C2.22386 7.25 2 7.47386 2 7.75V8.25C2 8.52614 2.22386 8.75 2.5 8.75H6.75C7.02614 8.75 7.25 8.97386 7.25 9.25V13.5C7.25 13.7761 7.47386 14 7.75 14H8.25C8.52614 14 8.75 13.7761 8.75 13.5V9.25C8.75 8.97386 8.97386 8.75 9.25 8.75H13.5C13.7761 8.75 14 8.52614 14 8.25V7.75C14 7.47386 13.7761 7.25 13.5 7.25H9.25C8.97386 7.25 8.75 7.02614 8.75 6.75V2.5Z" fill="current"/>
</svg>
