<svg width="24" height="24" viewBox="0 0 24 24" fill="none" xmlns="http://www.w3.org/2000/svg">
<path fill-rule="evenodd" clip-rule="evenodd" d="M1.06862 11.9998C1.06849 11.9997 1.06849 11.9995 1.06862 11.9993L11.3214 1.74654C11.5167 1.55128 11.8333 1.55128 12.0285 1.74654L13.4427 3.16076C13.638 3.35602 13.638 3.6726 13.4427 3.86786L7.66457 9.64604C7.34959 9.96102 7.57267 10.4996 8.01812 10.4996H22.4317C22.7078 10.4996 22.9317 10.7234 22.9317 10.9996V12.9996C22.9317 13.2757 22.7078 13.4996 22.4317 13.4996H8.01669C7.57124 13.4996 7.34816 14.0382 7.66314 14.3531L13.4425 20.1325C13.6378 20.3278 13.6378 20.6444 13.4425 20.8396L12.0283 22.2538C11.833 22.4491 11.5165 22.4491 11.3212 22.2538L1.06851 12.0012C1.06831 12.001 1.06831 12.0006 1.06851 12.0004L1.06862 12.0003C1.06876 12.0002 1.06876 12 1.06862 11.9998Z" fill="#334155"/>
</svg>
